<svg width="42" height="38" viewBox="0 0 42 38" fill="none" xmlns="http://www.w3.org/2000/svg">
<path d="M17.7305 34.547C17.9737 33.9209 18.0897 33.2526 18.0716 32.5812C18.1087 30.7205 18.606 28.8979 19.5191 27.2763C20.43 25.6573 21.7289 24.2901 23.2991 23.2975C23.8805 22.9856 24.3926 22.5591 24.8044 22.0436C25.2162 21.5281 25.5191 20.9345 25.6948 20.2986C25.8706 19.6627 25.9155 18.9977 25.8268 18.3439C25.7382 17.6901 25.5178 17.0612 25.1791 16.495C24.7266 15.7388 24.0753 15.1188 23.2991 14.7063C22.8541 14.3975 22.4266 14.065 22.0191 13.7088L20.9978 12.7088C19.1265 10.7415 18.0771 8.13385 18.0641 5.41875C18.0834 4.74721 17.9681 4.0786 17.7248 3.45236C17.4816 2.82612 17.1154 2.25493 16.6478 1.7725C16.1824 1.29061 15.6246 0.907437 15.0078 0.645855C14.391 0.384272 13.7278 0.249642 13.0578 0.250001C12.3882 0.250945 11.7256 0.386172 11.1092 0.647682C10.4928 0.909193 9.93509 1.29167 9.46909 1.7725C9.00237 2.25578 8.63672 2.82729 8.39354 3.45359C8.15036 4.07989 8.03453 4.7484 8.05284 5.42C8.06376 6.2918 8.30388 7.14537 8.74909 7.895C9.19276 8.64336 9.8262 9.26128 10.5853 9.68625C13.6591 11.6313 15.7978 15.35 15.7978 19.0075C15.7902 21.699 14.7609 24.2872 12.9178 26.2487L10.5928 28.3138C9.83409 28.7375 9.20034 29.355 8.75534 30.105C8.30909 30.8538 8.07034 31.7087 8.05909 32.5812C8.03997 33.2528 8.15542 33.9213 8.39865 34.5475C8.64188 35.1737 9.00796 35.7449 9.47534 36.2275C9.94088 36.7093 10.4987 37.0924 11.1155 37.3539C11.7322 37.6155 12.3954 37.7502 13.0653 37.75C13.7351 37.7492 14.398 37.6141 15.0146 37.3526C15.6313 37.091 16.1892 36.7085 16.6553 36.2275C17.1218 35.7443 17.4874 35.173 17.7305 34.547Z" fill="#D1D5DB"/>
<path d="M24.5203 8.2C23.9691 7.3725 23.6753 6.39875 23.6753 5.40375C23.6762 4.07091 24.2042 2.7925 25.1441 1.8475C25.9613 1.0253 27.0392 0.513129 28.1929 0.398862C29.3465 0.284594 30.5039 0.575352 31.4666 1.22125C32.2912 1.77488 32.9332 2.56045 33.3116 3.47875C33.69 4.3981 33.7888 5.40865 33.5956 6.38388C33.4023 7.3591 32.9257 8.25565 32.2253 8.96125C31.5271 9.66491 30.635 10.1445 29.663 10.3389C28.6909 10.5333 27.683 10.4336 26.7678 10.0525C25.8518 9.67106 25.0696 9.02634 24.5203 8.2Z" fill="#D1D5DB"/>
<path d="M25.9016 28.3975C26.7253 27.845 27.6941 27.55 28.6841 27.55V27.5475C29.3422 27.5483 29.9937 27.679 30.6011 27.9321C31.2086 28.1852 31.7601 28.5558 32.2241 29.0225C33.044 29.8474 33.554 30.93 33.6679 32.0874C33.7818 33.2449 33.4925 34.4062 32.8491 35.375C32.2998 36.2025 31.5171 36.8481 30.6003 37.23C29.6852 37.6111 28.6773 37.7108 27.7052 37.5164C26.7332 37.322 25.8411 36.8424 25.1428 36.1388C24.4422 35.433 23.9654 34.5363 23.7722 33.5608C23.579 32.5853 23.6779 31.5745 24.0566 30.655C24.435 29.7367 25.0771 28.9512 25.9016 28.3975Z" fill="#D1D5DB"/>
<path d="M40.6553 16.1975C41.2051 17.0247 41.4989 17.9968 41.4991 18.9914C41.4982 20.3246 40.9703 21.6033 40.0303 22.5488C39.5663 23.0153 39.0147 23.3857 38.4073 23.6389C37.7998 23.892 37.1484 24.0228 36.4903 24.0237C35.4993 24.0238 34.5306 23.7287 33.7078 23.1763C32.8833 22.6226 32.2412 21.837 31.8628 20.9188C31.4841 19.9992 31.3852 18.9884 31.5784 18.013C31.7717 17.0375 32.2485 16.1407 32.9491 15.435C33.6474 14.7311 34.5397 14.2513 35.5121 14.0569C36.4844 13.8626 37.4925 13.9624 38.4078 14.3438C39.324 14.7255 40.1062 15.3707 40.6553 16.1975Z" fill="#D1D5DB"/>
<path d="M2.47533 14.8088C3.29908 14.2563 4.26658 13.9613 5.25783 13.9613C5.91576 13.9626 6.56696 14.0938 7.17418 14.3471C7.78139 14.6004 8.33271 14.9709 8.79658 15.4375C9.61609 16.2621 10.1258 17.3443 10.2397 18.5012C10.3536 19.6582 10.0646 20.819 9.42158 21.7875C8.87241 22.6143 8.09021 23.2594 7.17408 23.6413C6.25863 24.0205 5.25116 24.1192 4.27951 23.9249C3.30786 23.7306 2.41582 23.2521 1.71658 22.55C1.01621 21.8444 0.539566 20.9479 0.346344 19.9726C0.153123 18.9974 0.251907 17.9868 0.630328 17.0675C1.00857 16.1488 1.6506 15.3628 2.47533 14.8088Z" fill="#D1D5DB"/>
</svg>
